<svg xmlns="http://www.w3.org/2000/svg" viewBox="0 0 24 24" fill="none" aria-hidden="true">
  <path
    fill="currentColor"
    d="M15.5 1h-8A2.5 2.5 0 0 0 5 3.5v17A2.5 2.5 0 0 0 7.5 23h8a2.5 2.5 0 0 0 2.5-2.5v-17C18 2.12 16.88 1 15.5 1zM11.5 21a1.5 1.5 0 1 1 0-3 1.5 1.5 0 0 1 0 3zm4-4H7V4h8.5v13z"
  />
  <circle cx="18.75" cy="5.25" r="3.35" fill="#f97316" stroke="rgba(255,255,255,0.9)" stroke-width="0.65" />
  <text
    x="18.75"
    y="6.85"
    text-anchor="middle"
    font-size="4.6"
    font-weight="800"
    font-family="system-ui, -apple-system, Segoe UI, sans-serif"
    fill="#fff"
  >D</text>
</svg>
